<?xml version="1.0" standalone="no"?>
<!DOCTYPE svg PUBLIC "-//W3C//DTD SVG 20010904//EN"
 "http://www.w3.org/TR/2001/REC-SVG-20010904/DTD/svg10.dtd">
<svg version="1.0" xmlns="http://www.w3.org/2000/svg"
 width="616.000000pt" height="616.000000pt" viewBox="0 0 616.000000 616.000000"
 preserveAspectRatio="xMidYMid meet">
<metadata>
Created by potrace 1.11, written by Peter Selinger 2001-2013
</metadata>
<g transform="translate(0.000000,616.000000) scale(0.100000,-0.100000)"
fill="#000000" stroke="none">
<path d="M3594 5376 c-50 -22 -82 -65 -95 -124 -6 -33 -9 -139 -7 -280 3 -191
6 -232 20 -258 57 -104 200 -124 284 -40 43 43 46 70 42 368 -3 230 -4 248
-24 275 -45 61 -149 89 -220 59z"/>
<path d="M2145 4774 c-45 -23 -66 -45 -86 -89 -39 -84 -20 -136 89 -248 133
-135 207 -162 297 -107 58 36 94 129 76 197 -13 46 -160 217 -212 244 -42 23
-124 24 -164 3z"/>
<path d="M5043 4778 c-47 -28 -355 -333 -375 -372 -36 -71 -23 -171 29 -218
27 -25 87 -48 125 -48 58 0 109 37 271 198 164 164 197 210 197 278 0 49 -35
121 -73 148 -33 25 -141 33 -174 14z"/>
<path d="M3545 4249 c-220 -24 -445 -129 -617 -288 -36 -33 -69 -61 -74 -61
-4 0 -32 12 -62 26 -86 41 -155 62 -276 85 -186 36 -427 19 -616 -43 -296 -96
-572 -335 -709 -613 -45 -91 -101 -246 -101 -279 0 -8 -35 -25 -87 -41 -441
-137 -738 -566 -710 -1024 17 -276 113 -489 306 -681 151 -150 294 -229 500
-276 l106 -24 1238 0 c1334 0 1291 -2 1457 52 210 67 407 221 536 418 112 172
165 345 165 545 1 133 -12 217 -52 340 l-29 93 44 64 c110 158 168 322 186
527 48 561 -331 1063 -879 1165 -107 20 -232 26 -326 15z m364 -384 c143 -49
282 -157 373 -289 139 -203 159 -505 48 -726 l-31 -61 -37 31 c-203 169 -388
245 -626 258 l-129 7 -27 85 c-54 170 -142 324 -260 453 l-63 68 24 26 c43 47
168 121 247 147 111 36 104 35 257 32 124 -2 149 -5 224 -31z m-1394 -209
c154 -41 286 -117 404 -230 156 -151 224 -293 260 -541 14 -98 23 -131 37
-142 13 -10 69 -13 228 -13 144 0 232 -5 278 -15 231 -48 441 -252 504 -486
23 -86 23 -253 1 -339 -57 -220 -227 -402 -447 -482 l-65 -23 -1235 -3 c-1386
-3 -1308 -7 -1463 71 -64 32 -101 60 -167 126 -141 142 -200 284 -200 481 0
166 43 293 139 414 121 151 281 235 496 259 l110 13 18 124 c35 240 105 387
257 541 142 143 265 213 445 253 89 20 313 15 400 -8z"/>
<path d="M5206 3317 c-59 -33 -79 -67 -84 -140 -3 -52 0 -67 20 -96 52 -77 47
-76 357 -79 275 -3 277 -3 311 20 19 13 45 43 58 68 41 79 13 183 -62 229 -31
20 -48 21 -297 21 -255 0 -265 -1 -303 -23z"/>
<path d="M4941 2020 c-49 -12 -83 -40 -108 -90 -46 -89 -27 -145 84 -261 104
-108 151 -134 224 -124 43 6 59 15 95 50 50 50 65 110 45 177 -13 43 -147 192
-205 227 -39 24 -91 32 -135 21z"/>
</g>
</svg>
